<?xml version="1.0" encoding="utf-8"?>
<!-- Generator: Adobe Illustrator 22.0.1, SVG Export Plug-In . SVG Version: 6.00 Build 0)  -->
<svg version="1.1" id="Слой_2" xmlns="http://www.w3.org/2000/svg" xmlns:xlink="http://www.w3.org/1999/xlink" x="0px" y="0px"
	 width="211px" height="93px" viewBox="0 0 211 93" enable-background="new 0 0 211 93" xml:space="preserve">
<path fill="#FFB800" d="M74,85v4H4V28h70v4h4v-8H53L67.5,20c1.3-0.3,3.6-1.6,3.5-5c-0.1-6.3-4-11.3-5.8-12.6
	c-0.1-0.1-0.2-0.2-0.3-0.2c-1.6-1.3-3.6-2.3-7.1,0.2l-0.1,0.1c-6.6,5.7-11.2,11.6-14,15.8c-1.4-0.8-3-1.3-4.7-1.3s-3.3,0.5-4.7,1.3
	c-2.8-4.2-7.5-10.2-14-15.8l-0.1-0.1c-3.4-2.5-5.5-1.5-7.1-0.2c-0.1,0.1-0.2,0.2-0.3,0.2C11,3.8,7.1,8.8,7,15
	c-0.1,3.3,2.2,4.7,3.5,5L25,24H0v69h78v-8H74z M60.3,5.6c1.3-1,1.5-0.8,2.1-0.3c0.2,0.1,0.3,0.3,0.5,0.4c0.6,0.5,4.1,4.2,4.2,9.4
	c0,0.6-0.1,0.9-0.3,1l0,0l-19.8,5.6c-0.1-0.1-0.1-0.3-0.2-0.4C49.2,17.2,53.8,11.3,60.3,5.6z M39,21c0.9,0,1.8,0.3,2.5,0.7
	c-0.7,1.2-1.1,2-1.3,2.3h-2.5c-0.1-0.3-0.6-1.1-1.3-2.3C37.2,21.3,38.1,21,39,21z M11.5,16.1l-0.2,0c0,0-0.4-0.1-0.3-1
	c0.1-5.2,3.5-8.9,4.2-9.4c0.2-0.1,0.3-0.2,0.5-0.4c0.3-0.2,0.5-0.4,0.7-0.4c0.3,0,0.7,0.2,1.4,0.7c6.5,5.6,11,11.6,13.6,15.6
	c-0.1,0.1-0.2,0.2-0.2,0.4L11.5,16.1z"/>
<g>
	<path fill="#CF453C" d="M31.3,71.8h-1.6V43.5h1.6v13.4h17.3V43.5h1.6v28.3h-1.6V58.5H31.3V71.8z"/>
	<path fill="#CF453C" d="M68.8,56.8c0-0.8-0.2-1.5-0.5-2.1c-0.3-0.6-0.8-1.1-1.4-1.5s-1.2-0.7-2-0.8s-1.5-0.3-2.3-0.3
		c-2,0-3.7,0.7-5.2,2l-0.9-1c0.9-0.9,1.8-1.5,2.9-1.9c1.1-0.4,2.2-0.6,3.4-0.6c0.9,0,1.8,0.1,2.7,0.4s1.7,0.6,2.3,1.1
		s1.2,1.1,1.6,1.9c0.4,0.8,0.6,1.6,0.6,2.7v14.3c-1.3,0.4-2.6,0.7-4,0.9c-1.4,0.2-2.7,0.3-4.1,0.2c-1,0-1.9-0.1-2.7-0.4
		c-0.8-0.3-1.5-0.7-2.2-1.2s-1.1-1.2-1.5-2c-0.4-0.8-0.5-1.7-0.5-2.7c0-1.1,0.2-2.1,0.6-2.9c0.4-0.8,1-1.5,1.7-2
		c0.7-0.5,1.5-0.9,2.4-1.1c0.9-0.2,1.9-0.3,2.9-0.3c0.9,0,1.9,0.1,2.9,0.3c1,0.2,2,0.5,2.9,0.9V56.8z M68.8,62
		c-0.8-0.3-1.7-0.6-2.8-0.8c-1.1-0.2-2.1-0.4-3.1-0.4c-0.8,0-1.6,0.1-2.3,0.2c-0.7,0.2-1.4,0.4-2,0.8c-0.6,0.4-1,0.9-1.4,1.6
		c-0.3,0.7-0.5,1.5-0.5,2.4c0,0.9,0.1,1.6,0.4,2.3s0.7,1.2,1.2,1.6c0.5,0.4,1.1,0.7,1.8,0.9c0.7,0.2,1.4,0.3,2.2,0.3
		c1.1,0,2.2,0,3.2-0.1s2.1-0.3,3.3-0.7V62z"/>
	<path fill="#CF453C" d="M76.1,51.9c0.7-0.2,1.3-0.4,1.9-0.6s1.2-0.3,1.8-0.4c0.6-0.1,1.2-0.2,1.8-0.2c0.6,0,1.3-0.1,2-0.1
		c0.9,0,1.8,0.1,2.7,0.4s1.7,0.6,2.4,1.1s1.2,1.2,1.7,1.9c0.4,0.8,0.6,1.7,0.6,2.9v8.8c0,1-0.2,2-0.6,2.8c-0.4,0.8-1,1.5-1.7,2
		c-0.7,0.5-1.5,1-2.4,1.2c-0.9,0.3-1.8,0.4-2.7,0.4c-1,0-2-0.1-3-0.3c-1-0.2-2-0.5-3.1-1v8.1h-1.4V51.9z M77.6,69.5
		c1,0.4,2,0.7,3,0.9s2.1,0.3,3.1,0.3c0.7,0,1.5-0.1,2.2-0.3c0.7-0.2,1.4-0.5,1.9-0.9c0.6-0.4,1-0.9,1.3-1.5c0.3-0.6,0.5-1.3,0.5-2.1
		V57c0-0.9-0.2-1.6-0.5-2.2c-0.3-0.6-0.8-1.1-1.3-1.5c-0.5-0.4-1.2-0.7-1.9-0.9c-0.7-0.2-1.4-0.3-2.2-0.3c-1,0-2,0-3,0.1
		s-2.1,0.3-3.2,0.7V69.5z"/>
	<path fill="#CF453C" d="M96.6,51.9c0.7-0.2,1.3-0.4,1.9-0.6s1.2-0.3,1.8-0.4c0.6-0.1,1.2-0.2,1.8-0.2c0.6,0,1.3-0.1,2-0.1
		c0.9,0,1.8,0.1,2.7,0.4s1.7,0.6,2.4,1.1s1.2,1.2,1.7,1.9c0.4,0.8,0.6,1.7,0.6,2.9v8.8c0,1-0.2,2-0.6,2.8c-0.4,0.8-1,1.5-1.7,2
		c-0.7,0.5-1.5,1-2.4,1.2c-0.9,0.3-1.8,0.4-2.7,0.4c-1,0-2-0.1-3-0.3c-1-0.2-2-0.5-3.1-1v8.1h-1.4V51.9z M98,69.5c1,0.4,2,0.7,3,0.9
		s2.1,0.3,3.1,0.3c0.7,0,1.5-0.1,2.2-0.3c0.7-0.2,1.4-0.5,1.9-0.9c0.6-0.4,1-0.9,1.3-1.5c0.3-0.6,0.5-1.3,0.5-2.1V57
		c0-0.9-0.2-1.6-0.5-2.2c-0.3-0.6-0.8-1.1-1.3-1.5c-0.5-0.4-1.2-0.7-1.9-0.9c-0.7-0.2-1.4-0.3-2.2-0.3c-1,0-2,0-3,0.1
		S99.1,52.6,98,53V69.5z"/>
	<path fill="#CF453C" d="M131.7,73.5c0,1.1-0.2,2-0.6,2.8c-0.4,0.8-1,1.4-1.7,1.9c-0.7,0.5-1.5,0.9-2.4,1.1
		c-0.9,0.2-1.8,0.4-2.7,0.4c-1.2,0-2.4-0.2-3.5-0.6c-1.1-0.4-2-0.9-2.8-1.6l0.9-0.9c0.7,0.6,1.5,1,2.5,1.3c0.9,0.3,1.9,0.4,2.9,0.4
		c0.8,0,1.6-0.1,2.3-0.3c0.7-0.2,1.4-0.5,1.9-0.8c0.5-0.4,1-0.9,1.3-1.5s0.5-1.3,0.5-2.1v-2.8c-1.1,0.5-2.1,0.9-3.1,1.1
		c-1,0.2-1.9,0.3-2.9,0.3c-0.9,0-1.8-0.1-2.7-0.4c-0.9-0.3-1.7-0.7-2.4-1.2c-0.7-0.5-1.3-1.2-1.7-2c-0.4-0.8-0.6-1.7-0.6-2.7V51.1
		h1.4v14.8c0,0.8,0.2,1.6,0.5,2.2c0.3,0.6,0.8,1.1,1.3,1.6c0.5,0.4,1.2,0.7,1.9,0.9c0.7,0.2,1.4,0.3,2.2,0.3c0.6,0,1.2,0,1.7-0.1
		c0.5-0.1,0.9-0.2,1.4-0.3c0.4-0.1,0.9-0.3,1.4-0.5c0.5-0.2,1-0.4,1.6-0.7V51.1h1.4V73.5z"/>
	<path fill="#CF453C" d="M152.8,51.6c-0.5-1.1-1.2-1.9-2.2-2.4c-1-0.5-2.1-0.8-3.2-0.8c-0.6,0-1.3,0.1-1.9,0.3
		c-0.6,0.2-1.1,0.4-1.6,0.8c-0.5,0.3-0.9,0.7-1.1,1.2c-0.3,0.5-0.4,1-0.4,1.7v10.3c0,0.6,0.1,1.2,0.4,1.7c0.3,0.5,0.7,0.9,1.2,1.2
		s1.1,0.5,1.7,0.7c0.6,0.2,1.3,0.2,1.9,0.2c0.7,0,1.3-0.1,1.9-0.2c0.6-0.2,1.2-0.4,1.7-0.7c0.5-0.3,0.9-0.7,1.2-1.2
		c0.3-0.5,0.5-1,0.5-1.7v-1.4h-6.4v-5.7h12.2v7.1c0,1.6-0.3,2.9-0.9,4.1c-0.6,1.2-1.5,2.2-2.5,3c-1,0.8-2.2,1.4-3.5,1.8
		c-1.3,0.4-2.7,0.6-4.1,0.6s-2.7-0.2-4.1-0.6c-1.3-0.4-2.5-1-3.6-1.8s-1.9-1.8-2.5-3c-0.6-1.2-1-2.6-1-4.2V52.4
		c0-1.5,0.3-2.9,0.9-4.1c0.6-1.2,1.5-2.1,2.5-2.9c1-0.8,2.2-1.4,3.5-1.8c1.3-0.4,2.7-0.6,4.1-0.6c1,0,1.9,0.1,2.9,0.3
		c1,0.2,1.9,0.6,2.7,1c0.9,0.5,1.7,1.1,2.4,1.8c0.7,0.8,1.4,1.7,1.9,2.8L152.8,51.6z"/>
	<path fill="#CF453C" d="M161.5,46.1c0-0.9,0.3-1.7,0.9-2.4c0.6-0.6,1.4-1,2.3-1c1,0,1.8,0.3,2.4,1c0.6,0.6,0.9,1.4,0.9,2.4
		s-0.3,1.7-0.9,2.4c-0.6,0.7-1.4,1-2.4,1c-0.9,0-1.7-0.3-2.3-1C161.8,47.8,161.5,47,161.5,46.1z M167.6,51.1v20.8h-5.6V51.1H167.6z"
		/>
	<path fill="#CF453C" d="M181.4,48.6c-1.3-0.2-2.2-0.1-2.9,0.4c-0.7,0.5-1,1.2-1,2v1h3.7v5.1h-3.7v14.7h-5.6V50.7
		c0-1.2,0.2-2.3,0.7-3.3c0.5-1,1.1-1.8,1.9-2.4c0.8-0.6,1.8-1.1,3-1.4c1.2-0.3,2.5-0.4,3.9-0.2V48.6z"/>
	<path fill="#CF453C" d="M193.8,71.5c-1.4,0.5-2.7,0.6-3.9,0.6s-2.2-0.4-3.1-1c-0.9-0.6-1.6-1.4-2.1-2.5c-0.5-1.1-0.7-2.5-0.7-4.1
		v-18h5.1l0.4,4.6h3.7v5.1h-3.7v8.3c0,1.2,0.3,2,1,2.4c0.7,0.4,1.8,0.4,3.3,0.1V71.5z"/>
	<path fill="#CF453C" d="M198.4,65.1c0.8,0.7,1.6,1.3,2.5,1.7c0.9,0.4,1.7,0.6,2.5,0.6c0.8,0,1.4-0.3,1.7-0.9
		c0.3-0.6,0.2-1.2-0.1-1.7c-0.3-0.5-1-0.8-1.9-1c-1.2-0.2-2.2-0.5-3-1s-1.5-1-2.1-1.6c-0.6-0.6-1-1.3-1.3-2
		c-0.3-0.7-0.4-1.5-0.4-2.2c0-0.8,0.2-1.6,0.5-2.4c0.3-0.8,0.8-1.5,1.4-2.1c0.6-0.6,1.3-1.1,2.2-1.4c0.9-0.4,1.9-0.5,3-0.5
		c0.9,0,2,0.1,3.2,0.4c1.2,0.3,2.3,0.9,3.4,1.7l-2.8,3.8c-0.3-0.3-0.8-0.6-1.5-0.9c-0.6-0.3-1.3-0.4-1.9-0.4c-0.5,0-0.9,0.1-1.2,0.4
		c-0.4,0.3-0.6,0.7-0.6,1.3c0,0.3,0.1,0.6,0.3,0.9s0.4,0.5,0.7,0.7c0.3,0.2,0.6,0.4,0.9,0.5c0.3,0.1,0.6,0.2,0.8,0.2
		c0.7,0.2,1.3,0.4,2,0.7c0.7,0.3,1.3,0.7,1.9,1.1c0.6,0.5,1.1,1,1.4,1.7c0.4,0.7,0.6,1.5,0.6,2.5c0,1.1-0.2,2.1-0.6,3
		c-0.4,0.9-1,1.6-1.7,2.1c-0.7,0.6-1.5,1-2.4,1.3c-0.9,0.3-1.8,0.4-2.8,0.4c-1.4,0-2.8-0.3-4.1-0.8c-1.3-0.5-2.4-1.4-3.4-2.7
		L198.4,65.1z"/>
</g>
</svg>
